# xmcd
#
# Track frame offsets:
#	150
#	11988
#	21176
#	31748
#	45612
#	56540
#	72486
#	85123
#	101794
#	111015
#	121826
#	132514
#	146311
#	159248
#	172966
#	185766
#	198068
#	212027
#
# Disc length: 3157 seconds
#
# Revision: 4
# Processed by: cddbd v1.5.2PL0 Copyright (c) Steve Scherf et al.
# Submitted via: EasyCDDAExtractor 12.0.1.1
#
DISCID=f30c5312
DTITLE=Various Artist - The Ultimate Ballroom album 7 CD 2
DYEAR=2004
DGENRE=Dance
TTITLE0=Buddy Greco - EW 28 - Fly Me To The Moon
TTITLE1=Sarah Vaughan - EW 29 - Eternally
TTITLE2=Ella Fitzgerald - EW 29 - Dreams Are Made For Children
TTITLE3=101 Strings Orch. - EW 29 - Tina's Waltz
TTITLE4=Andy Williams - EW 29 - The Summer Of Our Love
TTITLE5=Sammy Davis Jr - EW 29 - Children Children
TTITLE6=John Barry Orch. - EW 29 - The Girl With The Sun In Her Hair
TTITLE7=Dana With The Ray McVay Orch. - EW 29 - All Kinds Of Everything
TTITLE8=Dean Martin - EW 29 - Innamorata
TTITLE9=Ella Fitzgerald - EW 29 - Reaching For The Moon
TTITLE10=Mantovanni Orch. - WW 60 - Wunderbar
TTITLE11=Mantovanni Orch. - WW 60 - Skater's Waltz
TTITLE12=Stanely Black Orch. - TG 32 - Dark Eyes
TTITLE13=James Last Orch. - TG 32 - Flute Tango
TTITLE14=Donato Racciatti Orch. - TG 32 - Felicia
TTITLE15=Tanguerra Orch. - TG 32 - Guapparia
TTITLE16=Donato Racciatti Orch. - TG 32 - A La Gran Muneca
TTITLE17=Gotan Project - TG 32 - Santa Maria (Show Tango)
EXTD=YEAR: 2004
EXTT0=
EXTT1=
EXTT2=
EXTT3=
EXTT4=
EXTT5=
EXTT6=
EXTT7=
EXTT8=
EXTT9=
EXTT10=
EXTT11=
EXTT12=
EXTT13=
EXTT14=
EXTT15=
EXTT16=
EXTT17=
PLAYORDER=
